<svg xmlns="http://www.w3.org/2000/svg" viewBox="0 0 60 300" width="60" height="300" role="img" aria-label="Midnight Romance right ornament">
  <defs>
    <linearGradient id="gold" x1="0" y1="0" x2="1" y2="1">
      <stop offset="0" stop-color="#F6E7A1"/>
      <stop offset="0.5" stop-color="#D4AF37"/>
      <stop offset="1" stop-color="#B8902A"/>
    </linearGradient>
  </defs>
  <line x1="50" y1="0" x2="50" y2="300" stroke="url(#gold)" stroke-width="1" opacity="0.5"/>
  <g fill="none" stroke="url(#gold)" stroke-width="2" stroke-linecap="round" stroke-linejoin="round">
    <path d="M50 90 C44 86 42 80 46 82 C50 84 50 90 50 90Z" fill="url(#gold)" fill-opacity="0.4" stroke="none"/>
    <path d="M50 210 C44 206 42 200 46 202 C50 204 50 210 50 210Z" fill="url(#gold)" fill-opacity="0.4" stroke="none"/>
    <path d="M30 138 L34 150 L30 162 L26 150 Z" fill="url(#gold)" fill-opacity="0.6" stroke="none"/>
    <path d="M30 150 C24 144 24 138 30 140 C36 138 36 144 30 150Z" fill="url(#gold)" fill-opacity="0.4" stroke="none"/>
  </g>
  <circle cx="30" cy="150" r="1.6" fill="#FFFFFF"/>
</svg>
