<svg xmlns="http://www.w3.org/2000/svg" viewBox="0 0 200 1200" width="200" height="1200" role="img" aria-label="Midnight Romance right ornament">
  <defs>
    <linearGradient id="gold" x1="0" y1="0" x2="1" y2="1">
      <stop offset="0" stop-color="#F6E7A1"/>
      <stop offset="0.5" stop-color="#D4AF37"/>
      <stop offset="1" stop-color="#B8902A"/>
    </linearGradient>
    <g id="flv" fill="none" stroke="url(#gold)" stroke-width="2" stroke-linecap="round" stroke-linejoin="round">
      <path d="M8 8 C8 70 24 150 70 220 C100 262 130 278 170 286"/>
      <path d="M8 8 C8 60 18 120 42 180"/>
      <path d="M170 286 C196 286 214 270 214 246 C214 232 202 228 196 236 C190 242 196 254 206 250"/>
      <path d="M44 96 C32 84 34 70 50 72 C62 84 54 104 44 96Z" fill="url(#gold)" fill-opacity="0.45" stroke="none"/>
      <path d="M92 170 C78 160 80 144 96 146 C108 158 100 178 92 170Z" fill="url(#gold)" fill-opacity="0.45" stroke="none"/>
      <g stroke="none" fill="url(#gold)">
        <circle cx="120" cy="232" r="3.2"/>
        <circle cx="127" cy="236" r="3.2"/>
        <circle cx="125" cy="245" r="3.2"/>
        <circle cx="115" cy="245" r="3.2"/>
        <circle cx="113" cy="236" r="3.2"/>
      </g>
      <circle cx="120" cy="239" r="2.2" fill="#FFFFFF"/>
      <circle cx="36" cy="60" r="2" fill="url(#gold)" stroke="none"/>
      <circle cx="74" cy="130" r="2" fill="url(#gold)" stroke="none"/>
    </g>
  </defs>
  <line x1="192" y1="6" x2="192" y2="1194" stroke="url(#gold)" stroke-width="1" opacity="0.35"/>
  <use href="#flv" transform="translate(200,0) scale(-1,1)"/>
  <use href="#flv" transform="translate(200,1200) scale(-1,-1)"/>
</svg>
