<svg xmlns="http://www.w3.org/2000/svg" viewBox="0 0 1200 130" width="1200" height="130" role="img" aria-label="Midnight Romance top ornament">
  <defs>
    <linearGradient id="gold" x1="0" y1="0" x2="1" y2="1">
      <stop offset="0" stop-color="#F6E7A1"/>
      <stop offset="0.5" stop-color="#D4AF37"/>
      <stop offset="1" stop-color="#B8902A"/>
    </linearGradient>
    <g id="fl" fill="none" stroke="url(#gold)" stroke-width="2" stroke-linecap="round" stroke-linejoin="round">
      <path d="M8 8 C8 80 80 120 220 120"/>
      <path d="M8 8 C56 8 110 18 160 42"/>
      <path d="M220 120 C256 120 280 104 282 80 C282 66 270 62 262 70 C256 76 262 88 274 84"/>
      <path d="M70 48 C56 36 58 22 74 24 C86 36 78 56 70 48Z" fill="url(#gold)" fill-opacity="0.45" stroke="none"/>
      <path d="M124 84 C108 74 110 58 126 60 C138 72 130 92 124 84Z" fill="url(#gold)" fill-opacity="0.45" stroke="none"/>
      <g stroke="none" fill="url(#gold)">
        <circle cx="150" cy="91" r="3.2"/>
        <circle cx="157" cy="95" r="3.2"/>
        <circle cx="155" cy="104" r="3.2"/>
        <circle cx="145" cy="104" r="3.2"/>
        <circle cx="143" cy="95" r="3.2"/>
      </g>
      <circle cx="150" cy="98" r="2.2" fill="#FFFFFF"/>
      <circle cx="40" cy="30" r="2" fill="url(#gold)" stroke="none"/>
      <circle cx="100" cy="64" r="2" fill="url(#gold)" stroke="none"/>
    </g>
  </defs>
  <line x1="6" y1="8" x2="1194" y2="8" stroke="url(#gold)" stroke-width="1" opacity="0.35"/>
  <use href="#fl"/>
  <use href="#fl" transform="translate(1200,0) scale(-1,1)"/>
</svg>
